<svg width="63" height="82" viewBox="0 0 63 82" fill="none" xmlns="http://www.w3.org/2000/svg">
<path d="M28.9966 0.124255C27.6593 0.382331 26.7091 0.663869 25.6534 1.09791C21.4303 2.84579 18.0518 6.57617 16.7615 10.9283C16.2688 12.594 16.1515 13.6733 16.1515 16.8406C16.1515 18.4946 16.0928 20.2073 16.0342 20.6648C15.8817 21.7206 15.4124 22.6942 14.5913 23.6796C13.4651 25.0521 12.8903 26.3307 12.7026 27.8909C12.644 28.3367 12.7965 30.5656 13.1719 34.6244L13.7115 40.7009L13.4065 41.5925C12.9959 42.789 12.6674 44.5251 12.5149 46.3551C12.3272 48.7599 12.3507 49.1471 12.7026 49.5694L13.0076 49.933H50.0181L50.2645 49.6749C50.6399 49.2644 50.6633 48.9594 50.5226 46.9065C50.3818 44.6776 50.1824 43.5046 49.6779 41.8623L49.3026 40.6423L49.8656 34.5305C50.3935 28.5948 50.4053 28.3719 50.241 27.4334C50.0299 26.2134 49.4316 24.9231 48.6104 23.9025C47.7072 22.7763 47.5312 22.5065 47.238 21.7206C46.9799 21.0519 46.9564 20.8173 46.886 16.9696C46.8039 13.1337 46.7805 12.8638 46.4872 11.7142C45.0443 6.02482 40.8095 1.79002 35.1201 0.35887C34.1112 0.100793 33.5951 0.0421396 31.8707 0.00694731C30.463 -0.0165142 29.5597 0.0186781 28.9966 0.124255ZM33.818 2.13021C39.0499 3.04521 43.2143 6.93982 44.5516 12.1835C44.7745 13.0398 44.8097 13.6381 44.8918 17.1456C44.9856 21.4977 45.0326 21.8379 45.7247 23.2221C45.9241 23.6209 46.3699 24.2896 46.7101 24.7119C47.7893 26.0609 48.1647 26.8469 48.3406 28.0669C48.3758 28.3367 48.2233 30.5773 48.0004 33.0525C47.7776 35.5277 47.5899 37.6392 47.5899 37.733C47.5899 37.8269 47.2849 37.604 46.9212 37.2403C45.4549 35.8209 43.8947 34.9294 41.3726 34.0965C39.2141 33.3809 38.0762 32.595 37.1026 31.1521L36.692 30.5304L37.2082 29.979C38.7918 28.2781 40.2347 25.2163 40.9033 22.0725C41.2553 20.4419 41.3608 17.0048 41.091 15.4915C40.7508 13.4973 39.9883 11.5617 38.9443 9.98981C38.3695 9.12174 38.1583 9.05135 36.8562 9.34462C35.2726 9.69655 32.9851 9.76693 31.0378 9.52058C29.8764 9.37982 29.372 9.35635 29.2078 9.4502C29.0787 9.50885 28.7151 9.91943 28.4101 10.3417C27.3543 11.7729 25.6768 12.8873 23.9524 13.2862C22.5682 13.6146 22.404 13.7085 22.2045 14.3888C21.6884 16.1367 21.6532 19.8085 22.1341 22.0725C22.7911 25.1929 24.2457 28.2781 25.8293 29.979L26.3572 30.5421L26.0053 31.0817C25.1138 32.5011 23.9407 33.3105 21.5945 34.1434C18.9316 35.0936 17.6765 35.7857 16.2101 37.17C15.7761 37.5688 15.4476 37.8034 15.4476 37.7096C15.4476 37.604 15.2717 35.5042 15.0488 33.029C14.603 28.0434 14.6147 27.6681 15.2013 26.4129C15.3772 26.0257 15.7995 25.3806 16.128 24.9934C16.9609 23.9846 17.3715 23.269 17.7468 22.1898C18.0636 21.2631 18.0753 21.2044 18.1574 17.2042C18.2278 13.6381 18.263 13.0398 18.4859 12.1835C19.6355 7.64366 22.9318 4.07752 27.3426 2.59944C29.2312 1.96598 31.7886 1.77829 33.818 2.13021ZM37.9707 12.2421C38.8622 13.9783 39.261 15.7965 39.261 18.0958C39.261 19.8554 39.1437 20.829 38.7332 22.4831C37.7712 26.2956 35.8357 29.2165 33.5247 30.3192C30.6389 31.7034 27.6359 30.0729 25.6064 26.0375C24.2926 23.3981 23.6943 20.6296 23.8116 17.5679C23.882 15.5033 23.9172 15.3625 24.4099 15.2569C26.2282 14.8698 28.5039 13.4269 29.7943 11.8198L30.1228 11.4327L31.2137 11.5617C32.6684 11.726 34.7447 11.7142 35.9178 11.5265C37.4662 11.2685 37.4662 11.2685 37.9707 12.2421ZM36.5043 33.5569C36.8445 33.9088 37.3841 34.3663 37.7008 34.5775C38.0058 34.7886 38.2757 34.9646 38.2991 34.9763C38.3108 34.988 38.088 35.5511 37.8064 36.2198L37.2903 37.4398L31.5187 39.2932L28.6564 38.3665L25.7824 37.4515L25.2428 36.2198C24.8205 35.2344 24.7384 34.9646 24.8674 34.8942C25.5126 34.5423 26.7913 33.3692 27.3074 32.6888C27.6359 32.2313 27.9291 31.8677 27.9409 31.8677C27.9526 31.8677 28.2576 31.9967 28.5978 32.1609C30.4982 33.0173 32.6097 33.029 34.3459 32.1727L35.0966 31.809L35.4837 32.3721C35.6949 32.6771 36.1524 33.2167 36.5043 33.5569ZM23.5301 37.3225C23.882 38.1436 24.2574 38.8827 24.4099 38.9882C24.5507 39.1055 26.2164 39.6921 28.0934 40.2903L31.5187 41.393L34.9441 40.2903C36.821 39.6921 38.4751 39.1055 38.6158 39C38.7566 38.8944 39.1555 38.1319 39.4957 37.3225C40.2347 35.5863 40.0353 35.6567 41.9708 36.4427C42.9562 36.8298 45.0091 37.9911 45.0091 38.1553C45.0091 38.1905 44.7158 38.5542 44.3522 38.9765C42.4753 41.1936 41.443 43.7744 41.2905 46.6132L41.2201 47.9388H21.8174L21.747 46.6132C21.5945 43.7274 20.5388 41.1467 18.5797 38.8709C18.2513 38.4838 18.0401 38.1436 18.0988 38.1084C18.1692 38.0615 18.4507 37.8621 18.744 37.6509C19.7059 36.9823 22.1576 35.8796 22.7324 35.8561C22.8615 35.8561 23.1078 36.3019 23.5301 37.3225ZM17.3011 40.4311C18.873 42.3784 19.788 44.8653 19.788 47.188V47.9388H14.474L14.5443 46.5546C14.6265 44.9123 14.9784 43.0588 15.4476 41.8623C15.7878 40.9707 16.4917 39.7273 16.6442 39.7273C16.6911 39.7273 16.9843 40.044 17.3011 40.4311ZM46.8743 40.3607C47.7776 41.8623 48.3758 44.1263 48.4931 46.5546L48.5635 47.9388H43.2495V47.188C43.2495 45.4871 43.836 43.3873 44.7276 41.874C45.1968 41.088 46.2526 39.7273 46.3933 39.7273C46.4403 39.7273 46.6631 40.0088 46.8743 40.3607Z" fill="white"/>
<path d="M6.36 40.89C2.84747 40.89 0 43.1894 0 46.0258L1.70345 75.129H61.0634L62.4963 46.0258C62.4963 43.1894 59.6489 40.89 56.1363 40.89L6.36 40.89Z" fill="white"/>
<path d="M1.70345 76.8409H61.0634C61.0634 79.6774 58.216 81.9768 54.7034 81.9768H8.06345C4.55092 81.9768 1.70345 79.6774 1.70345 76.8409Z" fill="white"/>
<path d="M42.759 56.0338C42.5954 55.7202 42.3046 55.5112 41.9592 55.4703C41.832 55.4566 40.9503 55.4475 40.0051 55.4566L38.2828 55.4703L38.1965 55.5793C38.0829 55.7156 38.0874 55.9247 38.201 56.0383C38.2874 56.1246 38.351 56.1292 40.0869 56.1292C41.9774 56.1292 42.0955 56.1428 42.1728 56.3337C42.1864 56.3746 42.2 57.0426 42.2 57.8151V59.2239L42.3137 59.3329C42.3727 59.3966 42.4772 59.4466 42.5409 59.4466C42.6045 59.4466 42.709 59.3966 42.7681 59.3329L42.8817 59.2239V56.2837L42.759 56.0338Z" fill="white"/>
<path d="M42.7772 60.5463C42.6363 60.4145 42.4272 60.4145 42.3 60.5508L42.2 60.6553V63.7773C42.2 66.8902 42.2 66.8993 42.1091 66.8993C41.9774 66.8993 41.791 67.0992 41.791 67.2401C41.791 67.381 41.9774 67.5809 42.1091 67.5809C42.1909 67.5809 42.2 67.6082 42.2 67.9172C42.2 68.1853 42.1819 68.2717 42.1046 68.3716L42.0137 68.4898H37.3194C33.6339 68.4898 32.616 68.4762 32.5569 68.4353C32.5206 68.4035 32.207 68.0081 31.8571 67.5582C30.7074 66.0631 29.8076 65.3178 28.4307 64.7316C27.4082 64.2954 26.7674 64.1727 25.3587 64.1409C24.2862 64.1181 24.259 64.1181 24.1635 64.2136C24.0226 64.3544 24.0363 64.5953 24.1862 64.7134C24.2999 64.8043 24.368 64.8089 25.1496 64.8089C26.104 64.8089 26.7084 64.8816 27.3764 65.0815C28.5579 65.4314 29.5577 66.0268 30.4211 66.8993C30.6029 67.0856 31.0391 67.6127 31.3936 68.0717C31.7844 68.5807 32.1116 68.9579 32.2206 69.0306L32.4024 69.1487L42.1319 69.1714L42.3818 69.026C42.5727 68.9079 42.6545 68.8215 42.7544 68.6307L42.8817 68.3898V60.6417L42.7772 60.5463Z" fill="white"/>
<path d="M40.6322 67.0129C40.5232 66.8993 40.5095 66.8993 39.7234 66.8993C39.2826 66.8993 38.8872 66.9175 38.8418 66.9447C38.7963 66.9674 38.7327 67.0447 38.7054 67.122C38.66 67.231 38.66 67.2765 38.7191 67.3901C38.7554 67.4628 38.8236 67.5355 38.8599 67.5537C38.9008 67.5673 39.2917 67.5809 39.7279 67.5809C40.5095 67.5809 40.5232 67.5809 40.6322 67.4673C40.6959 67.4082 40.7458 67.3037 40.7458 67.2401C40.7458 67.1765 40.6959 67.072 40.6322 67.0129Z" fill="white"/>
<path d="M39.7915 48.6855C39.7415 48.6037 39.637 48.4992 39.5552 48.4492C39.4098 48.3584 39.3144 48.3584 33.9293 48.3584C28.5443 48.3584 28.4488 48.3584 28.3034 48.4492C28.2216 48.4992 28.1171 48.6037 28.0671 48.6855C27.9808 48.831 27.9762 48.9219 27.9762 52.1438V55.4475H24.2862C22.2276 55.4475 20.5144 55.4703 20.4144 55.493C20.1282 55.5566 19.8782 55.7611 19.7419 56.0338L19.6146 56.2837V60.1237C19.6146 63.8955 19.6192 63.9727 19.7101 64.1727C19.8237 64.4272 19.9509 64.5635 20.1827 64.6862C20.3554 64.7816 20.419 64.7862 21.6278 64.7862H22.8957L22.982 64.6771C23.0956 64.5408 23.0911 64.3953 22.9775 64.2499L22.882 64.1318L21.6778 64.1181C20.469 64.1045 20.469 64.1045 20.3826 63.9954C20.3008 63.8955 20.2963 63.7728 20.2963 60.8508V57.8106H20.5144C20.6871 57.8106 20.7553 57.7879 20.8325 57.7061C21.0643 57.4607 20.8689 57.1289 20.5008 57.1289H20.2963V56.7427C20.2963 56.3246 20.3554 56.2064 20.578 56.1519C20.6371 56.1383 22.3185 56.1337 24.318 56.1383L27.9535 56.1519L27.999 61.9687L28.0989 62.1095C28.3125 62.4095 28.1853 62.4004 31.6208 62.4004C34.9291 62.4004 35.2154 62.414 35.9061 62.6321C36.4196 62.7912 36.9422 63.0775 38.042 63.8091C38.6282 64.1999 39.1417 64.509 39.2189 64.5226C39.4234 64.5544 39.6825 64.4317 39.7915 64.2545C39.8779 64.1091 39.8824 64.0318 39.8824 61.2279C39.8824 58.0787 39.896 58.215 39.6098 57.9787C39.5234 57.906 39.3962 57.8515 39.2553 57.8333C38.4419 57.7379 38.1601 57.6243 37.7193 57.2062C37.5057 57.0062 37.383 56.8472 37.2694 56.6063C37.0467 56.1474 37.0058 55.7611 37.0286 54.4296C37.0513 53.4571 37.0649 53.3026 37.1513 53.0663C37.4694 52.1892 38.301 51.5848 39.1871 51.5848C39.4143 51.5848 39.6416 51.4621 39.7734 51.2713C39.8824 51.1122 39.8824 51.1031 39.8824 49.9716C39.8824 48.9173 39.8733 48.8264 39.7915 48.6855ZM38.9054 50.9214C38.5191 50.9623 37.9692 51.1577 37.6466 51.3713C37.1013 51.7348 36.6241 52.3892 36.4469 53.0209C36.3469 53.3753 36.3015 55.3839 36.3833 55.9747C36.4742 56.6563 36.7514 57.2244 37.2149 57.6833C37.6693 58.1241 38.3146 58.4286 38.8963 58.4786L39.2008 58.5059V60.11C39.2008 60.9962 39.1917 61.7187 39.1826 61.7187C39.169 61.7187 39.1053 61.696 39.0372 61.6733C38.8645 61.6051 38.6782 61.6915 38.6055 61.8641C38.5237 62.0596 38.6145 62.2004 38.9417 62.3913L39.2008 62.5458V63.7637L38.2419 63.1229C36.9695 62.2777 36.5469 62.0732 35.6107 61.8414C35.2426 61.7505 35.0881 61.746 31.9434 61.7324L28.6579 61.7142V49.04H39.2008V50.8896L38.9054 50.9214Z" fill="white"/>
<path d="M37.5512 60.8644C37.383 60.7053 36.2424 60.31 35.9516 60.31C35.7789 60.31 35.6107 60.469 35.6107 60.6372C35.6107 60.828 35.7425 60.9326 36.1288 61.0325C36.3242 61.0871 36.6696 61.2007 36.8922 61.287C37.1195 61.3734 37.3285 61.4461 37.3603 61.4461C37.3921 61.4461 37.4694 61.4052 37.5375 61.3506C37.692 61.2279 37.7011 61.0007 37.5512 60.8644Z" fill="white"/>
<path d="M34.3565 60.2236C34.2429 60.1327 34.1747 60.1282 33.4067 60.1282C32.4797 60.1282 32.4115 60.1464 32.357 60.4327C32.3342 60.5508 32.3524 60.6008 32.4433 60.6917L32.5615 60.8099H33.4203C34.2565 60.8099 34.2792 60.8053 34.3747 60.7053C34.5155 60.5554 34.5064 60.3418 34.3565 60.2236Z" fill="white"/>
<path d="M31.0891 60.2418C30.9937 60.1418 30.9391 60.1282 30.6801 60.1282H30.3847V59.8964C30.3847 59.701 30.362 59.6465 30.2484 59.5284C30.1348 59.4193 30.0848 59.3966 29.9848 59.4193C29.7576 59.4738 29.7031 59.5965 29.7031 60.0419C29.7031 60.4418 29.7076 60.4509 29.8576 60.619L30.0121 60.7871L30.4847 60.8008C30.9073 60.8144 30.9664 60.8099 31.08 60.719C31.2391 60.5917 31.2436 60.3918 31.0891 60.2418Z" fill="white"/>
<path d="M30.3302 49.7807C30.2257 49.5626 29.8621 49.549 29.7531 49.7626C29.7213 49.8171 29.7031 50.1897 29.7031 50.6941C29.7031 51.4803 29.7076 51.5439 29.794 51.6303C29.9303 51.7666 30.1712 51.753 30.2893 51.603C30.3802 51.4894 30.3847 51.4258 30.3802 50.6805C30.3802 50.2215 30.3575 49.8398 30.3302 49.7807Z" fill="white"/>
<path d="M30.3302 53.0527C30.2257 52.8345 29.8621 52.8209 29.7531 53.0345C29.7213 53.089 29.7031 53.4617 29.7031 53.9661C29.7031 54.7522 29.7076 54.8159 29.794 54.9022C29.9303 55.0385 30.1712 55.0249 30.2893 54.8749C30.3802 54.7613 30.3847 54.6977 30.3802 53.9524C30.3802 53.4935 30.3575 53.1117 30.3302 53.0527Z" fill="white"/>
<path d="M30.2484 56.2564C30.1348 56.1474 30.0848 56.1246 29.9848 56.1474C29.7213 56.211 29.7031 56.2837 29.7031 57.2244C29.7031 58.0242 29.7076 58.0878 29.794 58.1741C29.9303 58.3105 30.1712 58.2968 30.2893 58.1469C30.3756 58.0333 30.3847 57.9651 30.3847 57.2107V56.3928L30.2484 56.2564Z" fill="white"/>
<path d="M37.4921 66.9947C37.3785 66.9084 37.3103 66.8993 36.5878 66.8993C35.8652 66.8993 35.7971 66.9084 35.6835 66.9947C35.529 67.1174 35.5199 67.3446 35.6698 67.481C35.7698 67.5764 35.8153 67.5809 36.5742 67.5809C37.3103 67.5809 37.3785 67.5718 37.4921 67.4855C37.5785 67.4173 37.6103 67.3492 37.6103 67.2401C37.6103 67.131 37.5785 67.0629 37.4921 66.9947Z" fill="white"/>
<path d="M34.4656 67.131C34.3883 66.9175 34.3247 66.9038 33.4613 66.8993C32.6615 66.8993 32.6524 66.8993 32.5433 67.0129C32.4797 67.072 32.4297 67.1765 32.4297 67.2401C32.4297 67.3037 32.4797 67.4082 32.5433 67.4673C32.6524 67.5809 32.666 67.5809 33.4522 67.5809C33.893 67.5809 34.2929 67.5627 34.3383 67.5355C34.4519 67.4764 34.5155 67.2674 34.4656 67.131Z" fill="white"/>
<path d="M27.2219 57.2244C27.1083 57.138 27.0401 57.1289 26.2857 57.1289C25.4814 57.1289 25.4723 57.1289 25.3632 57.2425C25.2996 57.3016 25.2496 57.4061 25.2496 57.4698C25.2496 57.5334 25.2996 57.6379 25.3632 57.697C25.4723 57.8106 25.4814 57.8106 26.3176 57.8106C27.0992 57.8106 27.1628 57.806 27.2491 57.7197C27.3855 57.5834 27.3718 57.3425 27.2219 57.2244Z" fill="white"/>
<path d="M24.1135 57.3198C24.0908 57.2653 24.0181 57.1971 23.9545 57.1744C23.7864 57.1108 22.3731 57.1153 22.2322 57.1789C22.0095 57.2834 21.9913 57.6515 22.2004 57.7606C22.2549 57.7924 22.6185 57.8106 23.1138 57.8106C23.9272 57.8106 23.9363 57.8106 24.0454 57.697C24.1635 57.5834 24.1817 57.4925 24.1135 57.3198Z" fill="white"/>
<rect x="15.5" y="46.1807" width="35" height="25" fill="white"/>
</svg>
