<svg width="63" height="83" viewBox="0 0 63 83" fill="none" xmlns="http://www.w3.org/2000/svg">
<path d="M29.4966 0.94353C28.1593 1.20161 27.2091 1.48314 26.1534 1.91718C21.9303 3.66506 18.5518 7.39544 17.2615 11.7476C16.7688 13.4133 16.6515 14.4925 16.6515 17.6598C16.6515 19.3139 16.5928 21.0266 16.5342 21.4841C16.3817 22.5398 15.9124 23.5135 15.0913 24.4989C13.9651 25.8714 13.3903 27.15 13.2026 28.7102C13.144 29.156 13.2965 31.3848 13.6719 35.4437L14.2115 41.5202L13.9065 42.4117C13.4959 43.6083 13.1674 45.3444 13.0149 47.1744C12.8272 49.5792 12.8507 49.9663 13.2026 50.3886L13.5076 50.7523H50.5181L50.7645 50.4942C51.1399 50.0836 51.1633 49.7786 51.0226 47.7258C50.8818 45.4969 50.6824 44.3238 50.1779 42.6815L49.8026 41.4615L50.3656 35.3498C50.8935 29.4141 50.9053 29.1912 50.741 28.2527C50.5299 27.0327 49.9316 25.7423 49.1104 24.7218C48.2072 23.5956 48.0312 23.3258 47.7379 22.5398C47.4799 21.8712 47.4564 21.6366 47.386 17.7889C47.3039 13.9529 47.2805 13.6831 46.9872 12.5335C45.5443 6.8441 41.3095 2.6093 35.6201 1.17814C34.6112 0.920068 34.0951 0.861414 32.3707 0.826222C30.963 0.802761 30.0597 0.837953 29.4966 0.94353ZM34.318 2.94949C39.5499 3.86449 43.7143 7.75909 45.0516 13.0027C45.2745 13.8591 45.3097 14.4574 45.3918 17.9648C45.4856 22.317 45.5326 22.6571 46.2247 24.0414C46.4241 24.4402 46.8699 25.1089 47.2101 25.5312C48.2893 26.8802 48.6647 27.6662 48.8406 28.8862C48.8758 29.156 48.7233 31.3966 48.5005 33.8717C48.2776 36.3469 48.0899 38.4585 48.0899 38.5523C48.0899 38.6462 47.7849 38.4233 47.4212 38.0596C45.9549 36.6402 44.3947 35.7487 41.8726 34.9158C39.7141 34.2002 38.5762 33.4142 37.6026 31.9714L37.192 31.3496L37.7082 30.7983C39.2918 29.0973 40.7347 26.0356 41.4033 22.8918C41.7553 21.2612 41.8608 17.8241 41.591 16.3108C41.2508 14.3166 40.4883 12.381 39.4443 10.8091C38.8695 9.94101 38.6583 9.87063 37.3562 10.1639C35.7726 10.5158 33.4851 10.5862 31.5378 10.3399C30.3764 10.1991 29.872 10.1756 29.7078 10.2695C29.5787 10.3281 29.2151 10.7387 28.9101 11.161C27.8543 12.5922 26.1768 13.7066 24.4524 14.1054C23.0682 14.4339 22.904 14.5277 22.7045 15.2081C22.1884 16.956 22.1532 20.6277 22.6341 22.8918C23.2911 26.0121 24.7457 29.0973 26.3293 30.7983L26.8572 31.3614L26.5053 31.901C25.6138 33.3204 24.4407 34.1298 22.0945 34.9627C19.4316 35.9129 18.1765 36.605 16.7101 37.9892C16.2761 38.3881 15.9476 38.6227 15.9476 38.5289C15.9476 38.4233 15.7717 36.3235 15.5488 33.8483C15.103 28.8627 15.1147 28.4873 15.7013 27.2321C15.8772 26.845 16.2995 26.1998 16.628 25.8127C17.4609 24.8039 17.8715 24.0883 18.2468 23.0091C18.5636 22.0823 18.5753 22.0237 18.6574 18.0235C18.7278 14.4574 18.763 13.8591 18.9859 13.0027C20.1355 8.46294 23.4318 4.89679 27.8426 3.41872C29.7312 2.78526 32.2886 2.59757 34.318 2.94949ZM38.4707 13.0614C39.3622 14.7975 39.761 16.6158 39.761 18.915C39.761 20.6746 39.6437 21.6483 39.2332 23.3023C38.2712 27.1148 36.3357 30.0358 34.0247 31.1385C31.1389 32.5227 28.1359 30.8921 26.1064 26.8568C24.7926 24.2173 24.1943 21.4489 24.3116 18.3872C24.382 16.3225 24.4172 16.1818 24.9099 16.0762C26.7282 15.6891 29.0039 14.2462 30.2943 12.6391L30.6228 12.252L31.7137 12.381C33.1684 12.5452 35.2447 12.5335 36.4178 12.3458C37.9662 12.0877 37.9662 12.0877 38.4707 13.0614ZM37.0043 34.3762C37.3445 34.7281 37.8841 35.1856 38.2008 35.3967C38.5058 35.6079 38.7757 35.7839 38.7991 35.7956C38.8108 35.8073 38.588 36.3704 38.3064 37.039L37.7903 38.259L32.0187 40.1125L29.1564 39.1858L26.2824 38.2708L25.7428 37.039C25.3205 36.0537 25.2384 35.7839 25.3674 35.7135C26.0126 35.3615 27.2913 34.1885 27.8074 33.5081C28.1359 33.0506 28.4291 32.6869 28.4409 32.6869C28.4526 32.6869 28.7576 32.816 29.0978 32.9802C30.9982 33.8366 33.1097 33.8483 34.8459 32.9919L35.5966 32.6283L35.9837 33.1914C36.1949 33.4964 36.6524 34.036 37.0043 34.3762ZM24.0301 38.1417C24.382 38.9629 24.7574 39.7019 24.9099 39.8075C25.0507 39.9248 26.7164 40.5113 28.5934 41.1096L32.0187 42.2123L35.4441 41.1096C37.321 40.5113 38.9751 39.9248 39.1158 39.8192C39.2566 39.7137 39.6555 38.9512 39.9957 38.1417C40.7347 36.4056 40.5353 36.476 42.4708 37.2619C43.4562 37.649 45.5091 38.8104 45.5091 38.9746C45.5091 39.0098 45.2158 39.3735 44.8522 39.7958C42.9753 42.0129 41.943 44.5936 41.7905 47.4325L41.7201 48.7581H22.3174L22.247 47.4325C22.0945 44.5467 21.0388 41.966 19.0797 39.6902C18.7513 39.3031 18.5401 38.9629 18.5988 38.9277C18.6692 38.8808 18.9507 38.6814 19.244 38.4702C20.2059 37.8015 22.6576 36.6989 23.2324 36.6754C23.3615 36.6754 23.6078 37.1212 24.0301 38.1417ZM17.8011 41.2504C19.373 43.1977 20.288 45.6846 20.288 48.0073V48.7581H14.974L15.0443 47.3738C15.1265 45.7315 15.4784 43.8781 15.9476 42.6815C16.2878 41.79 16.9917 40.5465 17.1442 40.5465C17.1911 40.5465 17.4843 40.8633 17.8011 41.2504ZM47.3743 41.18C48.2776 42.6815 48.8758 44.9456 48.9931 47.3738L49.0635 48.7581H43.7495V48.0073C43.7495 46.3063 44.336 44.2065 45.2276 42.6933C45.6968 41.9073 46.7526 40.5465 46.8933 40.5465C46.9403 40.5465 47.1631 40.8281 47.3743 41.18Z" fill="black"/>
<path d="M6.86 41.7092C3.34747 41.7092 0.5 44.0086 0.5 46.8451L2.20345 75.9482H61.5634L62.9963 46.8451C62.9963 44.0086 60.1489 41.7092 56.6363 41.7092L6.86 41.7092Z" fill="black"/>
<path d="M2.20345 77.6602H61.5634C61.5634 80.4966 58.716 82.796 55.2034 82.796H8.56345C5.05092 82.796 2.20345 80.4966 2.20345 77.6602Z" fill="black"/>
<path d="M43.259 56.853C43.0954 56.5395 42.8046 56.3304 42.4592 56.2895C42.332 56.2759 41.4503 56.2668 40.5051 56.2759L38.7828 56.2895L38.6965 56.3986C38.5829 56.5349 38.5874 56.744 38.701 56.8576C38.7874 56.9439 38.851 56.9485 40.5869 56.9485C42.4774 56.9485 42.5955 56.9621 42.6728 57.153C42.6864 57.1939 42.7 57.8619 42.7 58.6344V60.0432L42.8137 60.1522C42.8727 60.2158 42.9772 60.2658 43.0409 60.2658C43.1045 60.2658 43.209 60.2158 43.2681 60.1522L43.3817 60.0432V57.103L43.259 56.853Z" fill="white"/>
<path d="M43.2772 61.3656C43.1363 61.2338 42.9272 61.2338 42.8 61.3701L42.7 61.4746V64.5966C42.7 67.7095 42.7 67.7185 42.6091 67.7185C42.4774 67.7185 42.291 67.9185 42.291 68.0594C42.291 68.2002 42.4774 68.4002 42.6091 68.4002C42.6909 68.4002 42.7 68.4275 42.7 68.7365C42.7 69.0046 42.6819 69.0909 42.6046 69.1909L42.5137 69.3091H37.8194C34.1339 69.3091 33.116 69.2954 33.0569 69.2545C33.0206 69.2227 32.707 68.8274 32.3571 68.3775C31.2074 66.8824 30.3076 66.1371 28.9307 65.5509C27.9082 65.1146 27.2674 64.9919 25.8587 64.9601C24.7862 64.9374 24.759 64.9374 24.6635 65.0328C24.5226 65.1737 24.5363 65.4146 24.6862 65.5327C24.7999 65.6236 24.868 65.6281 25.6496 65.6281C26.604 65.6281 27.2084 65.7009 27.8764 65.9008C29.0579 66.2507 30.0577 66.846 30.9211 67.7185C31.1029 67.9049 31.5391 68.432 31.8936 68.891C32.2844 69.4 32.6116 69.7771 32.7206 69.8498L32.9024 69.968L42.6319 69.9907L42.8818 69.8453C43.0727 69.7271 43.1545 69.6408 43.2544 69.4499L43.3817 69.2091V61.461L43.2772 61.3656Z" fill="white"/>
<path d="M41.1322 67.8322C41.0232 67.7185 41.0095 67.7185 40.2234 67.7185C39.7826 67.7185 39.3872 67.7367 39.3418 67.764C39.2963 67.7867 39.2327 67.864 39.2054 67.9412C39.16 68.0503 39.16 68.0957 39.2191 68.2093C39.2554 68.282 39.3236 68.3548 39.3599 68.3729C39.4008 68.3866 39.7917 68.4002 40.2279 68.4002C41.0095 68.4002 41.0232 68.4002 41.1322 68.2866C41.1959 68.2275 41.2458 68.123 41.2458 68.0594C41.2458 67.9958 41.1959 67.8912 41.1322 67.8322Z" fill="white"/>
<path d="M40.2915 49.5048C40.2415 49.423 40.137 49.3185 40.0552 49.2685C39.9098 49.1776 39.8144 49.1776 34.4293 49.1776C29.0443 49.1776 28.9488 49.1776 28.8034 49.2685C28.7216 49.3185 28.6171 49.423 28.5671 49.5048C28.4808 49.6502 28.4762 49.7411 28.4762 52.9631V56.2668H24.7862C22.7276 56.2668 21.0144 56.2895 20.9144 56.3122C20.6282 56.3759 20.3782 56.5804 20.2419 56.853L20.1146 57.103V60.9429C20.1146 64.7147 20.1192 64.792 20.2101 64.9919C20.3237 65.2464 20.4509 65.3828 20.6827 65.5055C20.8554 65.6009 20.919 65.6054 22.1278 65.6054H23.3957L23.482 65.4964C23.5956 65.36 23.5911 65.2146 23.4775 65.0692L23.382 64.951L22.1778 64.9374C20.969 64.9238 20.969 64.9238 20.8826 64.8147C20.8008 64.7147 20.7963 64.592 20.7963 61.67V58.6299H21.0144C21.1871 58.6299 21.2553 58.6071 21.3325 58.5253C21.5643 58.2799 21.3689 57.9482 21.0008 57.9482H20.7963V57.5619C20.7963 57.1439 20.8554 57.0257 21.078 56.9712C21.1371 56.9575 22.8185 56.953 24.818 56.9575L28.4535 56.9712L28.499 62.7879L28.5989 62.9288C28.8125 63.2287 28.6853 63.2197 32.1208 63.2197C35.4291 63.2197 35.7154 63.2333 36.4061 63.4514C36.9196 63.6105 37.4422 63.8968 38.542 64.6284C39.1282 65.0192 39.6417 65.3282 39.7189 65.3419C39.9234 65.3737 40.1825 65.251 40.2915 65.0737C40.3779 64.9283 40.3824 64.8511 40.3824 62.0472C40.3824 58.898 40.396 59.0343 40.1098 58.798C40.0234 58.7253 39.8962 58.6708 39.7553 58.6526C38.9419 58.5572 38.6601 58.4435 38.2193 58.0255C38.0057 57.8255 37.883 57.6665 37.7694 57.4256C37.5467 56.9666 37.5058 56.5804 37.5286 55.2489C37.5513 54.2764 37.5649 54.1219 37.6513 53.8856C37.9694 53.0085 38.801 52.4041 39.6871 52.4041C39.9143 52.4041 40.1416 52.2814 40.2734 52.0906C40.3824 51.9315 40.3824 51.9224 40.3824 50.7909C40.3824 49.7366 40.3733 49.6457 40.2915 49.5048ZM39.4054 51.7406C39.0191 51.7815 38.4692 51.9769 38.1466 52.1905C37.6013 52.5541 37.1241 53.2085 36.9469 53.8401C36.8469 54.1946 36.8015 56.2032 36.8833 56.7939C36.9742 57.4756 37.2514 58.0436 37.7149 58.5026C38.1693 58.9434 38.8146 59.2479 39.3963 59.2979L39.7008 59.3251V60.9293C39.7008 61.8155 39.6917 62.538 39.6826 62.538C39.669 62.538 39.6053 62.5153 39.5372 62.4926C39.3645 62.4244 39.1782 62.5107 39.1055 62.6834C39.0237 62.8788 39.1145 63.0197 39.4417 63.2106L39.7008 63.3651V64.583L38.7419 63.9422C37.4695 63.097 37.0469 62.8925 36.1107 62.6607C35.7426 62.5698 35.5881 62.5653 32.4434 62.5516L29.1579 62.5335V49.8593H39.7008V51.7088L39.4054 51.7406Z" fill="white"/>
<path d="M38.0512 61.6837C37.883 61.5246 36.7424 61.1293 36.4516 61.1293C36.2789 61.1293 36.1107 61.2883 36.1107 61.4564C36.1107 61.6473 36.2425 61.7518 36.6288 61.8518C36.8242 61.9063 37.1696 62.0199 37.3922 62.1063C37.6195 62.1926 37.8285 62.2653 37.8603 62.2653C37.8921 62.2653 37.9694 62.2244 38.0375 62.1699C38.192 62.0472 38.2011 61.82 38.0512 61.6837Z" fill="white"/>
<path d="M34.8565 61.0429C34.7429 60.952 34.6747 60.9475 33.9067 60.9475C32.9797 60.9475 32.9115 60.9657 32.857 61.2519C32.8342 61.3701 32.8524 61.4201 32.9433 61.511L33.0615 61.6291H33.9203C34.7565 61.6291 34.7792 61.6246 34.8747 61.5246C35.0155 61.3746 35.0064 61.1611 34.8565 61.0429Z" fill="white"/>
<path d="M31.5891 61.0611C31.4937 60.9611 31.4391 60.9475 31.1801 60.9475H30.8847V60.7157C30.8847 60.5203 30.862 60.4658 30.7484 60.3476C30.6348 60.2386 30.5848 60.2158 30.4848 60.2386C30.2576 60.2931 30.2031 60.4158 30.2031 60.8611C30.2031 61.261 30.2076 61.2701 30.3576 61.4383L30.5121 61.6064L30.9847 61.62C31.4073 61.6337 31.4664 61.6291 31.58 61.5382C31.7391 61.411 31.7436 61.2111 31.5891 61.0611Z" fill="white"/>
<path d="M30.8302 50.6C30.7257 50.3819 30.3621 50.3682 30.2531 50.5818C30.2213 50.6364 30.2031 51.009 30.2031 51.5134C30.2031 52.2996 30.2076 52.3632 30.294 52.4496C30.4303 52.5859 30.6712 52.5723 30.7893 52.4223C30.8802 52.3087 30.8847 52.2451 30.8802 51.4998C30.8802 51.0408 30.8575 50.6591 30.8302 50.6Z" fill="white"/>
<path d="M30.8302 53.8719C30.7257 53.6538 30.3621 53.6402 30.2531 53.8538C30.2213 53.9083 30.2031 54.2809 30.2031 54.7854C30.2031 55.5715 30.2076 55.6351 30.294 55.7215C30.4303 55.8578 30.6712 55.8442 30.7893 55.6942C30.8802 55.5806 30.8847 55.517 30.8802 54.7717C30.8802 54.3127 30.8575 53.931 30.8302 53.8719Z" fill="white"/>
<path d="M30.7484 57.0757C30.6348 56.9666 30.5848 56.9439 30.4848 56.9666C30.2213 57.0303 30.2031 57.103 30.2031 58.0436C30.2031 58.8435 30.2076 58.9071 30.294 58.9934C30.4303 59.1297 30.6712 59.1161 30.7893 58.9661C30.8756 58.8525 30.8847 58.7844 30.8847 58.03V57.212L30.7484 57.0757Z" fill="white"/>
<path d="M37.9921 67.814C37.8785 67.7276 37.8103 67.7185 37.0878 67.7185C36.3652 67.7185 36.2971 67.7276 36.1835 67.814C36.029 67.9367 36.0199 68.1639 36.1698 68.3002C36.2698 68.3957 36.3153 68.4002 37.0742 68.4002C37.8103 68.4002 37.8785 68.3911 37.9921 68.3048C38.0785 68.2366 38.1103 68.1684 38.1103 68.0594C38.1103 67.9503 38.0785 67.8821 37.9921 67.814Z" fill="white"/>
<path d="M34.9656 67.9503C34.8883 67.7367 34.8247 67.7231 33.9613 67.7185C33.1615 67.7185 33.1524 67.7185 33.0433 67.8322C32.9797 67.8912 32.9297 67.9958 32.9297 68.0594C32.9297 68.123 32.9797 68.2275 33.0433 68.2866C33.1524 68.4002 33.166 68.4002 33.9522 68.4002C34.393 68.4002 34.7929 68.382 34.8383 68.3548C34.9519 68.2957 35.0155 68.0866 34.9656 67.9503Z" fill="white"/>
<path d="M27.7219 58.0436C27.6083 57.9573 27.5401 57.9482 26.7857 57.9482C25.9814 57.9482 25.9723 57.9482 25.8632 58.0618C25.7996 58.1209 25.7496 58.2254 25.7496 58.289C25.7496 58.3527 25.7996 58.4572 25.8632 58.5163C25.9723 58.6299 25.9814 58.6299 26.8176 58.6299C27.5992 58.6299 27.6628 58.6253 27.7491 58.539C27.8855 58.4026 27.8718 58.1618 27.7219 58.0436Z" fill="white"/>
<path d="M24.6135 58.1391C24.5908 58.0845 24.5181 58.0164 24.4545 57.9936C24.2864 57.93 22.8731 57.9346 22.7322 57.9982C22.5095 58.1027 22.4913 58.4708 22.7004 58.5799C22.7549 58.6117 23.1185 58.6299 23.6138 58.6299C24.4272 58.6299 24.4363 58.6299 24.5454 58.5162C24.6635 58.4026 24.6817 58.3118 24.6135 58.1391Z" fill="white"/>
<rect x="16" y="47" width="35" height="25" fill="black"/>
</svg>
